<svg xmlns="http://www.w3.org/2000/svg" width="20" height="20" viewBox="0 0 20 20"><defs><style>.a{fill:#fff;opacity:0;}.b{fill:#7fcc7f;}</style></defs><g transform="translate(-69 -1)"><rect class="a" width="20" height="20" transform="translate(69 1)"/><path class="b" d="M-1525-3673a9.01,9.01,0,0,1-9-9,9.01,9.01,0,0,1,9-9,9.01,9.01,0,0,1,9,9A9.01,9.01,0,0,1-1525-3673Zm-1.278-5.377h0a.581.581,0,0,0,.058,0,.784.784,0,0,0,.556-.23l5.394-5.4a.779.779,0,0,0,.231-.555.781.781,0,0,0-.231-.557.781.781,0,0,0-.555-.23.781.781,0,0,0-.555.23l-4.9,4.9-2.341-2.341a.78.78,0,0,0-.555-.23.783.783,0,0,0-.556.23.787.787,0,0,0,0,1.112l2.839,2.839a.782.782,0,0,0,.557.23.544.544,0,0,0,.056,0Z" transform="translate(1604 3693)"/></g></svg>