<?xml version="1.0" encoding="UTF-8"?>
<svg xmlns="http://www.w3.org/2000/svg" xmlns:xlink="http://www.w3.org/1999/xlink" width="32px" height="32px" viewBox="0 0 32 32" version="1.1">
<g id="surface1">
<path style=" stroke:none;fill-rule:nonzero;fill:rgb(0%,0%,0%);fill-opacity:1;" d="M 22.003906 19.628906 C 20.765625 18.324219 19.273438 17.371094 17.707031 16.855469 C 19.269531 15.445312 20.253906 13.40625 20.253906 11.140625 C 20.253906 6.894531 16.800781 3.441406 12.558594 3.441406 C 8.3125 3.441406 4.859375 6.894531 4.859375 11.140625 C 4.859375 13.40625 5.84375 15.445312 7.40625 16.855469 C 5.839844 17.371094 4.351562 18.324219 3.109375 19.628906 C 1.105469 21.742188 0 24.484375 0 27.339844 L 0 28.558594 L 25.113281 28.558594 L 25.113281 27.339844 C 25.113281 24.484375 24.007812 21.742188 22.003906 19.628906 Z M 7.292969 11.140625 C 7.292969 8.234375 9.652344 5.875 12.558594 5.875 C 15.460938 5.875 17.824219 8.234375 17.824219 11.140625 C 17.824219 14.042969 15.460938 16.40625 12.558594 16.40625 C 9.652344 16.40625 7.292969 14.042969 7.292969 11.140625 Z M 2.515625 26.125 C 3.117188 21.878906 6.804688 18.835938 10.125 18.835938 L 14.988281 18.835938 C 18.3125 18.835938 21.996094 21.878906 22.597656 26.125 Z M 2.515625 26.125 "/>
<path style=" stroke:none;fill-rule:nonzero;fill:rgb(0%,0%,0%);fill-opacity:1;" d="M 28.355469 13.976562 L 28.355469 10.328125 L 25.925781 10.328125 L 25.925781 13.976562 L 22.277344 13.976562 L 22.277344 16.40625 L 25.925781 16.40625 L 25.925781 20.050781 L 28.355469 20.050781 L 28.355469 16.40625 L 32 16.40625 L 32 13.976562 Z M 28.355469 13.976562 "/>
</g>
</svg>
