<?xml version="1.0" encoding="UTF-8"?>
<svg xmlns="http://www.w3.org/2000/svg" xmlns:xlink="http://www.w3.org/1999/xlink" width="32px" height="32px" viewBox="0 0 32 32" version="1.1">
<g id="surface1">
<path style=" stroke:none;fill-rule:nonzero;fill:rgb(0%,0%,0%);fill-opacity:1;" d="M 16 2.667969 C 8.636719 2.667969 2.667969 8.636719 2.667969 16 C 2.667969 23.363281 8.636719 29.332031 16 29.332031 C 23.363281 29.332031 29.332031 23.363281 29.332031 16 C 29.332031 8.636719 23.363281 2.667969 16 2.667969 Z M 16 24 C 15.261719 24 14.667969 23.402344 14.667969 22.667969 C 14.667969 21.929688 15.261719 21.332031 16 21.332031 C 16.738281 21.332031 17.332031 21.929688 17.332031 22.667969 C 17.332031 23.402344 16.738281 24 16 24 Z M 17.332031 17.121094 L 17.332031 18.667969 C 17.332031 19.402344 16.738281 20 16 20 C 15.261719 20 14.667969 19.402344 14.667969 18.667969 L 14.667969 16 C 14.667969 15.261719 15.261719 14.667969 16 14.667969 C 17.105469 14.667969 18 13.769531 18 12.667969 C 18 11.5625 17.105469 10.667969 16 10.667969 C 14.894531 10.667969 14 11.5625 14 12.667969 C 14 13.402344 13.402344 14 12.667969 14 C 11.929688 14 11.332031 13.402344 11.332031 12.667969 C 11.324219 10.261719 13.144531 8.242188 15.539062 8.003906 C 17.929688 7.765625 20.113281 9.386719 20.578125 11.746094 C 21.042969 14.105469 19.636719 16.433594 17.332031 17.121094 Z M 17.332031 17.121094 "/>
</g>
</svg>
